<svg xmlns="http://www.w3.org/2000/svg" style="display:none">
  <!-- Tabler Icons (MIT) — curated subset for PD-Spec Live Research App -->
  <!-- All symbols: viewBox 0 0 24 24, stroke=currentColor, fill=none, stroke-width=2, round caps/joins -->

  <symbol id="icon-layout-dashboard" viewBox="0 0 24 24" stroke="currentColor" fill="none" stroke-width="2" stroke-linecap="round" stroke-linejoin="round">
    <rect x="4" y="4" width="6" height="8" rx="1" />
    <rect x="14" y="4" width="6" height="6" rx="1" />
    <rect x="14" y="14" width="6" height="6" rx="1" />
    <rect x="4" y="16" width="6" height="4" rx="1" />
  </symbol>

  <symbol id="icon-diamond" viewBox="0 0 24 24" stroke="currentColor" fill="none" stroke-width="2" stroke-linecap="round" stroke-linejoin="round">
    <path d="M6 5h12l3 5-9 11-9-11z" />
    <path d="M10 5l2 6 2-6" />
    <path d="M3 10h18" />
  </symbol>

  <symbol id="icon-bolt" viewBox="0 0 24 24" stroke="currentColor" fill="none" stroke-width="2" stroke-linecap="round" stroke-linejoin="round">
    <path d="M13 3l-10 12h9l-1 8 10-12h-9z" />
  </symbol>

  <symbol id="icon-list-details" viewBox="0 0 24 24" stroke="currentColor" fill="none" stroke-width="2" stroke-linecap="round" stroke-linejoin="round">
    <path d="M13 5h8" />
    <path d="M13 9h5" />
    <path d="M13 15h8" />
    <path d="M13 19h5" />
    <rect x="3" y="4" width="6" height="6" rx="1" />
    <rect x="3" y="14" width="6" height="6" rx="1" />
  </symbol>

  <symbol id="icon-alert-triangle" viewBox="0 0 24 24" stroke="currentColor" fill="none" stroke-width="2" stroke-linecap="round" stroke-linejoin="round">
    <path d="M12 9v4" />
    <path d="M10.363 3.591l-8.106 13.534a1.914 1.914 0 001.636 2.871h16.214a1.914 1.914 0 001.636-2.87l-8.106-13.536a1.914 1.914 0 00-3.274 0z" />
    <path d="M12 16h.01" />
  </symbol>

  <symbol id="icon-sitemap" viewBox="0 0 24 24" stroke="currentColor" fill="none" stroke-width="2" stroke-linecap="round" stroke-linejoin="round">
    <rect x="3" y="15" width="6" height="6" rx="1" />
    <rect x="15" y="15" width="6" height="6" rx="1" />
    <rect x="9" y="3" width="6" height="6" rx="1" />
    <path d="M6 15v-1a2 2 0 012-2h8a2 2 0 012 2v1" />
    <path d="M12 9v3" />
  </symbol>

  <symbol id="icon-file-text" viewBox="0 0 24 24" stroke="currentColor" fill="none" stroke-width="2" stroke-linecap="round" stroke-linejoin="round">
    <path d="M14 3v4a1 1 0 001 1h4" />
    <path d="M17 21h-10a2 2 0 01-2-2v-14a2 2 0 012-2h7l5 5v11a2 2 0 01-2 2z" />
    <path d="M9 9h1" />
    <path d="M9 13h6" />
    <path d="M9 17h6" />
  </symbol>

  <symbol id="icon-pencil-plus" viewBox="0 0 24 24" stroke="currentColor" fill="none" stroke-width="2" stroke-linecap="round" stroke-linejoin="round">
    <path d="M4 20h4l10.5-10.5a1.5 1.5 0 00-4-4l-10.5 10.5v4" />
    <path d="M13.5 6.5l4 4" />
    <path d="M15 18h6" />
    <path d="M18 15v6" />
  </symbol>

  <symbol id="icon-send" viewBox="0 0 24 24" stroke="currentColor" fill="none" stroke-width="2" stroke-linecap="round" stroke-linejoin="round">
    <path d="M10 14l11-11" />
    <path d="M21 3l-6.5 18a.55.55 0 01-1 0l-3.5-7-7-3.5a.55.55 0 010-1l18-6.5" />
  </symbol>

  <symbol id="icon-folders" viewBox="0 0 24 24" stroke="currentColor" fill="none" stroke-width="2" stroke-linecap="round" stroke-linejoin="round">
    <path d="M9 4h3l2 2h5a2 2 0 012 2v7a2 2 0 01-2 2h-10a2 2 0 01-2-2v-9a2 2 0 012-2" />
    <path d="M17 17v2a2 2 0 01-2 2h-10a2 2 0 01-2-2v-9a2 2 0 012-2h2" />
  </symbol>

  <symbol id="icon-file-export" viewBox="0 0 24 24" stroke="currentColor" fill="none" stroke-width="2" stroke-linecap="round" stroke-linejoin="round">
    <path d="M14 3v4a1 1 0 001 1h4" />
    <path d="M11.5 21h-4.5a2 2 0 01-2-2v-14a2 2 0 012-2h7l5 5v5m-5 6h7m-3-3l3 3-3 3" />
  </symbol>

  <symbol id="icon-sun" viewBox="0 0 24 24" stroke="currentColor" fill="none" stroke-width="2" stroke-linecap="round" stroke-linejoin="round">
    <circle cx="12" cy="12" r="4" />
    <path d="M3 12h1m8-9v1m8 8h1m-9 8v1m-6.4-15.4l.7.7m12.1-.7l-.7.7m0 11.4l.7.7m-12.1-.7l-.7.7" />
  </symbol>

  <symbol id="icon-moon" viewBox="0 0 24 24" stroke="currentColor" fill="none" stroke-width="2" stroke-linecap="round" stroke-linejoin="round">
    <path d="M12 3c.132 0 .263 0 .393 0a7.5 7.5 0 007.92 12.446a9 9 0 11-8.313-12.454z" />
  </symbol>

  <symbol id="icon-search" viewBox="0 0 24 24" stroke="currentColor" fill="none" stroke-width="2" stroke-linecap="round" stroke-linejoin="round">
    <circle cx="10" cy="10" r="7" />
    <path d="M21 21l-6-6" />
  </symbol>

  <symbol id="icon-clipboard" viewBox="0 0 24 24" stroke="currentColor" fill="none" stroke-width="2" stroke-linecap="round" stroke-linejoin="round">
    <path d="M9 5h-2a2 2 0 00-2 2v12a2 2 0 002 2h10a2 2 0 002-2v-12a2 2 0 00-2-2h-2" />
    <rect x="9" y="3" width="6" height="4" rx="2" />
  </symbol>

  <symbol id="icon-chevron-down" viewBox="0 0 24 24" stroke="currentColor" fill="none" stroke-width="2" stroke-linecap="round" stroke-linejoin="round">
    <path d="M6 9l6 6 6-6" />
  </symbol>

  <symbol id="icon-external-link" viewBox="0 0 24 24" stroke="currentColor" fill="none" stroke-width="2" stroke-linecap="round" stroke-linejoin="round">
    <path d="M11 7h-5a2 2 0 00-2 2v9a2 2 0 002 2h9a2 2 0 002-2v-5" />
    <path d="M10 14l10-10" />
    <path d="M15 4h5v5" />
  </symbol>

  <symbol id="icon-check" viewBox="0 0 24 24" stroke="currentColor" fill="none" stroke-width="2" stroke-linecap="round" stroke-linejoin="round">
    <path d="M5 12l5 5 10-10" />
  </symbol>

  <symbol id="icon-x" viewBox="0 0 24 24" stroke="currentColor" fill="none" stroke-width="2" stroke-linecap="round" stroke-linejoin="round">
    <path d="M18 6l-12 12" />
    <path d="M6 6l12 12" />
  </symbol>

  <symbol id="icon-folder" viewBox="0 0 24 24" stroke="currentColor" fill="none" stroke-width="2" stroke-linecap="round" stroke-linejoin="round">
    <path d="M5 4h4l3 3h7a2 2 0 012 2v8a2 2 0 01-2 2h-14a2 2 0 01-2-2v-11a2 2 0 012-2" />
  </symbol>

  <symbol id="icon-folder-open" viewBox="0 0 24 24" stroke="currentColor" fill="none" stroke-width="2" stroke-linecap="round" stroke-linejoin="round">
    <path d="M5 19l2.757-7.351a1 1 0 01.936-.649h12.307a1 1 0 01.986 1.164l-.996 5.211a2 2 0 01-1.964 1.625h-14.026a2 2 0 01-2-2v-11a2 2 0 012-2h4l3 3h7a2 2 0 012 2v2" />
  </symbol>

  <symbol id="icon-flask" viewBox="0 0 24 24" stroke="currentColor" fill="none" stroke-width="2" stroke-linecap="round" stroke-linejoin="round">
    <path d="M9 3l6 0" />
    <path d="M10 9l4 0" />
    <path d="M10 3v6l-4 11a.7 .7 0 00.5 1h11a.7 .7 0 00.5-1l-4-11v-6" />
  </symbol>

  <symbol id="icon-photo" viewBox="0 0 24 24" stroke="currentColor" fill="none" stroke-width="2" stroke-linecap="round" stroke-linejoin="round">
    <path d="M15 8h.01" />
    <rect x="4" y="4" width="16" height="16" rx="3" />
    <path d="M4 15l4-4a3 5 0 013 0l5 5" />
    <path d="M14 14l1-1a3 5 0 013 0l2 2" />
  </symbol>

  <symbol id="icon-file" viewBox="0 0 24 24" stroke="currentColor" fill="none" stroke-width="2" stroke-linecap="round" stroke-linejoin="round">
    <path d="M14 3v4a1 1 0 001 1h4" />
    <path d="M17 21h-10a2 2 0 01-2-2v-14a2 2 0 012-2h7l5 5v11a2 2 0 01-2 2z" />
  </symbol>

  <symbol id="icon-eye" viewBox="0 0 24 24" stroke="currentColor" fill="none" stroke-width="2" stroke-linecap="round" stroke-linejoin="round">
    <path d="M10 12a2 2 0 104 0 2 2 0 00-4 0" />
    <path d="M21 12c-2.4 4-5.4 6-9 6-3.6 0-6.6-2-9-6 2.4-4 5.4-6 9-6 3.6 0 6.6 2 9 6" />
  </symbol>

  <symbol id="icon-layout-list" viewBox="0 0 24 24" stroke="currentColor" fill="none" stroke-width="2" stroke-linecap="round" stroke-linejoin="round">
    <rect x="4" y="4" width="16" height="6" rx="2" />
    <rect x="4" y="14" width="16" height="6" rx="2" />
  </symbol>
</svg>
