<svg width="2110" height="641" viewBox="0 0 2110 641" fill="none" xmlns="http://www.w3.org/2000/svg">
<path d="M596.5 190C702.815 190 789 276.185 789 382.5C789 488.815 702.815 575 596.5 575C490.185 575 404 488.815 404 382.5C404 375.232 404.404 368.059 405.188 361H185.499C175.834 361 167.999 368.835 167.999 378.5C167.999 388.165 175.834 396 185.499 396H265.499C266.743 396 267.976 396.044 269.198 396.129C270.895 396.045 272.663 396 274.505 396C342.16 396 397.006 450.845 397.006 518.5C397.006 582.267 348.283 634.651 286.035 640.462C283.574 640.816 281.058 641 278.499 641L52.5 640.999C23.5051 640.999 0 617.494 0 588.499C0 559.504 23.5051 535.999 52.5 535.999L274.499 536C284.164 536 291.999 528.165 291.999 518.5C291.999 508.835 284.164 501 274.499 501H180.499C179.511 501 178.529 500.971 177.554 500.917C111.981 498.552 59.5469 444.65 59.5469 378.5C59.5469 310.845 114.393 256 182.048 256C183.377 256 184.667 256.022 185.92 256.062C186.774 256.021 187.634 256 188.499 256H449.999C450.462 256 450.924 256.006 451.384 256.018C486.673 215.563 538.601 190 596.5 190ZM1474.5 189.729C1475.36 189.729 1476.22 189.75 1477.08 189.791C1478.33 189.751 1479.62 189.729 1480.95 189.729C1547.77 189.729 1601.64 243.228 1602.96 309.729H1602.99V469.729H1654.16C1653.39 462.758 1653 455.675 1653 448.5C1653 342.185 1739.19 256 1845.5 256C1851.66 256 1857.75 256.29 1863.76 256.855H2057.5C2086.49 256.855 2110 280.361 2110 309.355C2110 338.35 2086.49 361.855 2057.5 361.855H2017.44C2030.59 387.898 2038 417.333 2038 448.5C2038 554.815 1951.81 641 1845.5 641C1787.48 641 1735.46 615.33 1700.16 574.729H1374.5C1371.94 574.729 1369.42 574.544 1366.96 574.19C1304.72 568.379 1255.99 515.995 1255.99 452.229C1255.99 384.574 1310.84 329.729 1378.49 329.729C1380.33 329.729 1382.1 329.773 1383.8 329.857C1385.02 329.772 1386.26 329.729 1387.5 329.729H1477.5C1487.16 329.728 1495 321.893 1495 312.229C1495 302.564 1487.16 294.729 1477.5 294.729H1356.5C1327.5 294.729 1304 271.223 1304 242.229C1304 213.234 1327.5 189.729 1356.5 189.729H1474.5ZM1022.48 188.005C1073.53 188.005 1122.49 208.286 1158.59 244.387C1191.61 277.403 1211.39 321.177 1214.53 367.47C1214.84 369.771 1215 372.119 1215 374.505V586.505C1215 615.5 1191.49 639.005 1162.5 639.005C1133.51 639.005 1110 615.5 1110 586.505V380.505H1109.79C1109.79 357.347 1100.59 335.137 1084.22 318.762C1067.84 302.387 1045.63 293.188 1022.48 293.188C999.319 293.187 977.109 302.387 960.733 318.762C944.358 335.137 935.159 357.347 935.159 380.505H935V483.91C935 512.905 911.495 536.41 882.5 536.41C853.505 536.41 830 512.905 830 483.91V380.505H829.977C829.977 379.547 829.986 378.591 830 377.635V376.91C830 375.82 830.033 374.738 830.099 373.664C831.824 325.094 851.873 278.872 886.358 244.387C922.459 208.286 971.422 188.005 1022.48 188.005ZM1845.5 361C1797.18 361 1758 400.175 1758 448.5C1758 496.825 1797.18 536 1845.5 536C1893.82 536 1933 496.825 1933 448.5C1933 404.331 1900.27 367.806 1857.75 361.85C1854.96 361.81 1852.22 361.553 1849.55 361.094C1848.2 361.033 1846.86 361 1845.5 361ZM1378.5 434.729C1368.83 434.729 1361 442.564 1361 452.229C1361 461.893 1368.83 469.729 1378.5 469.729H1477.04C1486.7 469.728 1494.54 461.893 1494.54 452.229C1494.54 442.564 1486.7 434.729 1477.04 434.729H1378.5ZM596.5 295.682C548.551 295.682 509.682 334.551 509.682 382.5C509.682 430.448 548.552 469.318 596.5 469.318C644.448 469.318 683.318 430.448 683.318 382.5C683.318 334.552 644.448 295.682 596.5 295.682ZM1228 0C1256.72 0 1280 23.2812 1280 52C1280 63.7784 1276.08 74.6402 1269.48 83.3584L1269.57 83.4385C1269.29 83.7369 1269.01 84.0332 1268.73 84.3301C1266.35 87.3225 1263.65 90.0457 1260.67 92.4492C1236.41 115.699 1207.21 133.261 1175.18 143.775C1140.01 155.321 1102.55 158.004 1066.12 151.613L1066.11 151.679C1033.4 145.4 999.724 146.3 967.399 154.314C937.771 161.661 909.928 174.824 885.479 193.01C876.188 201.686 863.716 207 850 207C821.281 207 798 183.719 798 155C798 136.347 807.821 119.988 822.574 110.812C858.296 84.0038 899.07 64.6214 942.49 53.8555C988.951 42.3357 1037.34 40.9547 1084.38 49.7979C1103.94 53.1659 1124.04 51.6936 1142.92 45.4961C1159.67 39.9965 1174.99 30.9299 1187.84 18.96C1197.38 7.3819 1211.83 0 1228 0Z" fill="black"/>
</svg>
